<svg version="1.1" xmlns="http://www.w3.org/2000/svg" viewBox="0 0 177.75125253200537 144.08893601506946" width="177.75125253200537" height="144.08893601506946">
  <!-- svg-source:excalidraw -->
  
  <defs>
    <style>
      @font-face {
        font-family: "Virgil";
        src: url("https://unpkg.com/@excalidraw/excalidraw@0.13.0/dist/excalidraw-assets/Virgil.woff2");
      }
      @font-face {
        font-family: "Cascadia";
        src: url("https://unpkg.com/@excalidraw/excalidraw@0.13.0/dist/excalidraw-assets/Cascadia.woff2");
      }
    </style>
  </defs>
  <rect x="0" y="0" width="177.75125253200537" height="144.08893601506946" fill="#ffffff"></rect><g stroke-linecap="round" transform="translate(44.17285812571646 34.31911534159444) rotate(0 36 37.5)"><path d="M28.03 0.87 C34.18 -1.32, 42.26 0.24, 48.84 3.09 C55.43 5.95, 63.64 11.84, 67.53 17.99 C71.42 24.14, 72.82 32.75, 72.18 39.99 C71.54 47.23, 68.26 55.65, 63.7 61.43 C59.13 67.21, 51.59 72.9, 44.79 74.67 C38 76.44, 29.44 75.08, 22.92 72.02 C16.41 68.97, 9.55 62.41, 5.72 56.34 C1.89 50.26, -0.63 42.72, -0.05 35.56 C0.52 28.39, 4.38 19.23, 9.18 13.35 C13.98 7.48, 25.18 2.25, 28.77 0.31 C32.35 -1.64, 30.5 1.11, 30.68 1.68 M47.85 0.82 C54.35 2.61, 62.44 10.73, 66.56 16.8 C70.67 22.86, 72.79 30.14, 72.52 37.22 C72.25 44.3, 69.44 53.31, 64.94 59.29 C60.44 65.27, 52.24 70.63, 45.51 73.09 C38.79 75.54, 30.89 76.36, 24.59 74.03 C18.29 71.71, 11.88 65.44, 7.72 59.13 C3.56 52.81, -0.05 43.35, -0.35 36.15 C-0.65 28.95, 1.84 21.9, 5.93 15.93 C10.02 9.96, 17.44 2.42, 24.19 0.33 C30.94 -1.75, 42.48 2.9, 46.44 3.42 C50.39 3.95, 47.81 3.37, 47.93 3.49" stroke="#000000" stroke-width="1" fill="none"></path></g><g stroke-linecap="round"><g transform="translate(167.17285812571646 10.31911534159444) rotate(0 -78.29723185971378 56.82314909987617)"><path d="M0.58 0.48 C-25.8 19.42, -131.19 95.4, -157.17 113.97 M-0.58 -0.32 C-26.7 18.27, -129.22 93.53, -155.08 112.35" stroke="#000000" stroke-width="1" fill="none"></path></g></g><g stroke-linecap="round"><g transform="translate(11.17285812571646 85.31911534159444) rotate(0 21.470046239783983 23.93204061285593)"><path d="M0.65 0.09 C7.39 7.87, 34.09 39.61, 41.15 47.84 M-0.47 -0.91 C6.58 7.49, 36.2 40.72, 43.41 48.77" stroke="#000000" stroke-width="1" fill="none"></path></g></g></svg>